<svg t="1722392403907" class="icon" viewBox="0 0 1040 1024" version="1.1" xmlns="http://www.w3.org/2000/svg" p-id="11532" width="200" height="200"><path d="M1016.246154 512c0 278.449231-225.673846 504.123077-504.123077 504.123077S8 790.449231 8 512 233.673846 7.876923 512.123077 7.876923s504.123077 225.673846 504.123077 504.123077" fill="#5A89FF" p-id="11533"></path><path d="M541.110154 182.508308c0 16.305231-29.538462 217.009231-29.538462 217.00923s-29.538462-200.704-29.538461-217.00923c0-16.305231 13.233231-29.538462 29.538461-29.538462 16.384 0.078769 29.538462 13.312 29.538462 29.538462" fill="#FFFFFF" p-id="11534"></path><path d="M511.650462 403.456c-1.969231 0-3.623385-1.417846-3.938462-3.387077-1.181538-8.192-29.538462-201.176615-29.538462-217.560615a33.555692 33.555692 0 0 1 33.476924-33.476923 33.555692 33.555692 0 0 1 33.476923 33.476923c0 16.384-28.356923 209.368615-29.538462 217.560615-0.315077 1.969231-1.969231 3.387077-3.938461 3.387077z m0-246.468923c-14.099692 0-25.6 11.500308-25.6 25.6 0 11.185231 15.044923 117.366154 25.6 189.755077 10.555077-72.388923 25.6-178.569846 25.6-189.755077a25.647262 25.647262 0 0 0-25.6-25.6z" fill="#FFFFFF" p-id="11535"></path><path d="M401.846154 266.791385c7.640615 13.154462 77.508923 189.361231 77.508923 189.36123S361.673846 307.593846 354.112 294.360615c-7.640615-13.154462-3.072-30.011077 10.082462-37.651692 13.154462-7.640615 30.011077-3.072 37.651692 10.082462" fill="#FFFFFF" p-id="11536"></path><path d="M244.622769 484.903385c15.202462 0 202.673231 27.569231 202.673231 27.56923s-187.470769 27.569231-202.673231 27.569231c-15.202462 0-27.569231-12.366769-27.569231-27.569231s12.366769-27.569231 27.569231-27.56923" fill="#FFFFFF" p-id="11537"></path><path d="M354.899692 730.112c7.640615-13.154462 125.243077-161.792 125.243077-161.792s-69.868308 176.128-77.508923 189.361231c-7.640615 13.154462-24.497231 17.723077-37.651692 10.082461-13.154462-7.561846-17.644308-24.497231-10.082462-37.651692" fill="#FFFFFF" p-id="11538"></path><path d="M622.4 757.208615c-7.640615-13.154462-77.508923-189.361231-77.508923-189.36123s117.602462 148.558769 125.243077 161.792c7.640615 13.154462 3.072 30.089846-10.082462 37.651692-13.154462 7.640615-30.011077 3.072-37.651692-10.082462" fill="#FFFFFF" p-id="11539"></path><path d="M779.623385 539.096615c-15.202462 0-202.752-27.569231-202.752-27.56923s187.470769-27.569231 202.752-27.569231c15.202462 0 27.569231 12.366769 27.56923 27.569231s-12.366769 27.569231-27.56923 27.56923" fill="#FFFFFF" p-id="11540"></path><path d="M669.346462 293.888c-7.640615 13.154462-125.243077 161.792-125.243077 161.792s69.868308-176.128 77.508923-189.361231c7.640615-13.154462 24.497231-17.723077 37.651692-10.082461 13.154462 7.561846 17.644308 24.497231 10.082462 37.651692" fill="#FFFFFF" p-id="11541"></path><path d="M241.314462 322.166154c14.099692 8.192 173.134769 134.065231 173.134769 134.065231s-188.573538-74.752-202.673231-82.944a29.499077 29.499077 0 0 1-10.791385-40.329847c8.192-14.099692 26.230154-18.983385 40.329847-10.791384" fill="#FFFFFF" p-id="11542"></path><path d="M414.449231 460.169846c-0.472615 0-0.945231-0.078769-1.417846-0.315077-7.719385-3.072-188.967385-74.988308-203.145847-83.180307-15.990154-9.216-21.425231-29.696-12.288-45.686154a33.3824 33.3824 0 0 1 45.686154-12.209231c14.178462 8.192 167.148308 129.260308 173.607385 134.380308 1.496615 1.181538 1.969231 3.387077 0.945231 5.04123-0.630154 1.181538-1.969231 1.969231-3.387077 1.969231zM226.584615 322.087385c-2.205538 0-4.489846 0.315077-6.695384 0.866461-6.616615 1.732923-12.130462 5.986462-15.517539 11.894154a25.7024 25.7024 0 0 0 9.373539 34.973538c9.688615 5.592615 109.174154 45.686154 177.152 72.704-57.422769-45.292308-141.863385-111.458462-151.552-117.051076-3.938462-2.205538-8.349538-3.387077-12.760616-3.387077z" fill="#FFFFFF" p-id="11543"></path><path d="M212.327385 651.579077c14.099692-8.113231 202.673231-82.944 202.67323-82.944s-159.113846 125.952-173.213538 134.065231c-14.099692 8.192-32.137846 3.308308-40.329846-10.791385a29.538462 29.538462 0 0 1 10.870154-40.329846" fill="#FFFFFF" p-id="11544"></path><path d="M227.136 710.577231c-2.914462 0-5.828923-0.393846-8.743385-1.181539-8.664615-2.284308-15.832615-7.876923-20.322461-15.596307-4.489846-7.719385-5.671385-16.777846-3.308308-25.363693 2.284308-8.585846 7.876923-15.832615 15.596308-20.322461 14.178462-8.192 195.505231-80.108308 203.145846-83.180308 1.811692-0.708923 3.859692 0 4.883692 1.654154 0.945231 1.654154 0.551385 3.859692-0.94523 5.041231-6.537846 5.12-159.428923 126.188308-173.607385 134.380307-5.198769 3.072-10.948923 4.568615-16.699077 4.568616z m-12.839385-55.611077a25.127385 25.127385 0 0 0-11.894153 15.517538c-1.732923 6.616615-0.866462 13.469538 2.520615 19.377231s8.900923 10.161231 15.517538 11.894154c6.616615 1.811692 13.469538 0.866462 19.377231-2.520615 9.688615-5.592615 94.129231-71.68 151.552-117.051077-67.977846 27.175385-167.384615 67.190154-177.073231 72.782769z" fill="#FFFFFF" p-id="11545"></path><path d="M483.136 841.491692c0-16.305231 29.538462-217.009231 29.538462-217.00923s29.538462 200.704 29.538461 217.00923-13.233231 29.538462-29.538461 29.538462a29.601477 29.601477 0 0 1-29.538462-29.538462" fill="#FFFFFF" p-id="11546"></path><path d="M512.595692 874.889846a33.555692 33.555692 0 0 1-33.476923-33.476923c0-16.384 28.356923-209.368615 29.538462-217.560615a3.977846 3.977846 0 0 1 7.876923 0c1.181538 8.192 29.538462 201.176615 29.538461 217.560615 0 18.510769-15.044923 33.476923-33.476923 33.476923z m0-223.232c-10.555077 72.388923-25.6 178.569846-25.6 189.755077 0 14.099692 11.500308 25.6 25.6 25.6s25.6-11.500308 25.6-25.6c0-11.106462-15.044923-117.366154-25.6-189.755077z" fill="#FFFFFF" p-id="11547"></path><path d="M782.931692 701.833846C768.832 693.720615 609.796923 567.847385 609.796923 567.847385s188.573538 74.752 202.673231 82.944a29.499077 29.499077 0 0 1 10.791384 40.329846c-8.192 14.020923-26.230154 18.904615-40.329846 10.712615" fill="#FFFFFF" p-id="11548"></path><path d="M797.661538 709.710769c-5.671385 0-11.421538-1.417846-16.699076-4.489846-14.178462-8.192-167.148308-129.260308-173.607385-134.380308a3.899077 3.899077 0 0 1-0.945231-5.04123c0.945231-1.732923 2.993231-2.363077 4.883692-1.654154 7.719385 3.072 188.967385 74.988308 203.145847 83.180307 15.990154 9.216 21.425231 29.696 12.288 45.686154a33.658092 33.658092 0 0 1-29.065847 16.699077zM633.348923 581.395692c57.422769 45.292308 141.863385 111.458462 151.552 117.051077 5.907692 3.387077 12.760615 4.332308 19.377231 2.520616a25.127385 25.127385 0 0 0 15.517538-11.894154c7.010462-12.209231 2.835692-27.884308-9.373538-34.973539-9.609846-5.513846-109.095385-45.607385-177.073231-72.704z" fill="#FFFFFF" p-id="11549"></path><path d="M811.918769 372.420923c-14.099692 8.192-202.673231 82.944-202.673231 82.944s159.035077-125.873231 173.13477-134.065231a29.585723 29.585723 0 0 1 40.329846 10.791385c8.192 14.099692 3.387077 32.137846-10.791385 40.329846" fill="#FFFFFF" p-id="11550"></path><path d="M609.245538 459.303385c-1.339077 0-2.678154-0.708923-3.387076-1.969231a3.9936 3.9936 0 0 1 0.94523-5.041231c6.537846-5.12 159.428923-126.188308 173.607385-134.380308 7.719385-4.489846 16.699077-5.671385 25.363692-3.308307 8.664615 2.284308 15.832615 7.876923 20.322462 15.596307 4.489846 7.719385 5.671385 16.777846 3.308307 25.363693-2.284308 8.585846-7.876923 15.832615-15.596307 20.322461-14.178462 8.192-195.505231 80.108308-203.145846 83.180308-0.393846 0.078769-0.866462 0.236308-1.417847 0.236308z m187.943385-138.003693c-4.411077 0-8.822154 1.181538-12.760615 3.465846-9.688615 5.592615-94.129231 71.68-151.552 117.051077 67.977846-27.096615 167.463385-67.111385 177.152-72.704a25.127385 25.127385 0 0 0 11.894154-15.517538c1.732923-6.616615 0.866462-13.469538-2.520616-19.377231s-8.900923-10.161231-15.517538-11.894154c-2.284308-0.787692-4.489846-1.024-6.695385-1.024z" fill="#FFFFFF" p-id="11551"></path></svg>