<svg t="1723683432903" class="icon" viewBox="0 0 1024 1024" version="1.1" xmlns="http://www.w3.org/2000/svg" p-id="14685" width="200" height="200"><path d="M512 0A512 512 0 1 1 0 512 512 512 0 0 1 512 0z m330.752 795.136l-140.544-142.08a300.544 300.544 0 0 0-235.264-481.792 299.776 299.776 0 0 0 0 599.296 293.12 293.12 0 0 0 184.832-65.536l140.032 141.824a36.096 36.096 0 0 0 51.2 0 36.864 36.864 0 0 0 0-51.2zM308.48 631.296a229.12 229.12 0 0 1 0-320.768 222.464 222.464 0 0 1 316.928 0 229.12 229.12 0 0 1 0 320.768 222.464 222.464 0 0 1-316.928 0z m0 0" p-id="14686" fill="#1296db"></path></svg>